<?xml version="1.0" encoding="UTF-8"?>
<svg id="Camada_2" data-name="Camada 2" xmlns="http://www.w3.org/2000/svg" viewBox="0 0 64 64">
  <defs>
    <style>
      .cls-1 {
        fill: #ff3c40;
      }

      .cls-2 {
        fill: #003d97;
      }
    </style>
  </defs>
  <g id="Camada_1-2" data-name="Camada 1">
    <g id="Arte_3" data-name="Arte 3">
      <g>
        <path class="cls-1" d="M40.55,0s-19.28,11.67-8.39,11.59c10.89-.07,13.38,2.76,9.97,8.36-3.74,6.14-17.26,18.13-17.26,18.13h-13.71s18.6-12.36,22.9-18.18c0,0,4.38-4.67-4.03-4.96-8.41-.29-12.15-.96-4.38-7.73,0,0,4.23-3.5,10.99-7.22h3.91Z"/>
        <g>
          <path class="cls-2" d="M37.87,5.75c-.97-.42-1.95-.78-2.92-1.1-.04.03-.07.05-.11.08-.09.07-.18.14-.28.21,1.03.34,2.06.75,3.08,1.2,10.94,4.87,17.34,14.33,14.31,21.14-2.55,5.74-11,7.75-20.13,5.33-.72.7-1.41,1.36-2.07,1.97,10.84,3.37,21.19,1.09,24.11-5.74,3.24-7.59-3.92-17.93-16-23.09"/>
          <path class="cls-2" d="M12.35,9.65c2.25-5.06,9.09-7.22,16.94-6,.15-.1.3-.2.46-.31-9.1-1.56-17.11.95-19.63,6.83-2.73,6.39,1.91,14.72,10.65,20.28.71-.52,1.43-1.06,2.14-1.6-8.59-5.16-13.23-13.2-10.56-19.19"/>
        </g>
      </g>
      <g>
        <path class="cls-2" d="M59.68,43.54c-.56,0-1.04.13-1.43.4-.4.26-.71.7-.94,1.32-.23.62-.35,1.43-.38,2.43,0,1.17.22,2.14.65,2.91.43.77,1.06,1.17,1.88,1.18.09-.02.21-.03.34-.03.56-.06,1.01-.28,1.37-.67.35-.38.62-.87.78-1.46.16-.59.24-1.22.24-1.91-.01-.73-.09-1.39-.23-2.01-.15-.61-.41-1.13-.78-1.54-.37-.41-.87-.62-1.5-.63M59.74,42.98c.98.04,1.79.31,2.42.81.63.5,1.09,1.09,1.37,1.75.28.67.44,1.29.46,1.87,0,.83-.13,1.56-.39,2.18-.26.63-.6,1.14-1.03,1.55-.43.4-.89.7-1.39.9-.5.19-1,.29-1.49.3-.81,0-1.57-.18-2.25-.54-.69-.36-1.24-.88-1.64-1.57-.41-.68-.63-1.48-.67-2.39,0-.63.1-1.23.29-1.82.19-.58.48-1.11.87-1.57.38-.46.85-.82,1.41-1.09.55-.26,1.17-.39,1.86-.39h.18ZM46.94,43.23h1.51l4.65,6.09h.04v-6.09h.7v8.87h-.73l-5.42-7.09h-.03v7.09h-.73v-8.87ZM40.3,49.21h2.61l-1.32-3.26-1.29,3.26ZM38.4,52.1l3.62-9.12h.03l3.77,9.12h-1.75l-.9-2.32h-3.1l-.89,2.32h-.77ZM35.52,43.23h1.69v8.87h-1.69v-8.87ZM28.16,50.98l.6-.48c.22.35.44.61.65.77.21.16.45.27.73.33.07.01.15.02.22.03.07,0,.13.02.18.03.44-.01.83-.15,1.15-.4.32-.25.49-.59.51-1,0-.58-.16-1.02-.48-1.33-.32-.31-.77-.55-1.37-.75-.47-.17-.87-.35-1.19-.54-.32-.19-.59-.46-.8-.8-.21-.34-.32-.77-.32-1.29.02-.52.16-.97.44-1.36.28-.39.65-.69,1.11-.89.46-.21.96-.31,1.5-.31.35.02.69.09,1.02.23.33.14.62.32.88.55.25.23.45.5.58.8l-.56.38c-.38-.81-.98-1.23-1.81-1.26-.41,0-.75.12-1.03.38-.28.25-.44.6-.46,1.04,0,.39.1.7.3.92.2.22.55.45,1.03.68.36.15.71.31,1.04.45.33.15.63.32.9.51.27.19.49.45.66.78.18.33.26.74.26,1.22,0,.4-.1.76-.27,1.1-.17.34-.4.62-.69.86-.29.24-.62.42-.98.54-.36.12-.74.19-1.13.19-.55,0-1.06-.12-1.55-.35-.48-.23-.86-.57-1.13-1.02M21.47,43.23h5.27v.56h-3.6v3.45h3.38v.56h-3.38v3.71h3.66v.59h-5.32v-8.87ZM15.21,43.23h1.66v8.17h3.57v.7h-5.24v-8.87ZM8.43,49.21h2.61l-1.32-3.26-1.29,3.26ZM6.53,52.1l3.62-9.12h.03l3.77,9.12h-1.75l-.9-2.32h-3.1l-.89,2.32h-.77ZM.11,50.98l.6-.48c.22.35.44.61.65.77.21.16.45.27.73.33.07.01.15.02.22.03.07,0,.13.02.18.03.44-.01.83-.15,1.15-.4.32-.25.49-.59.51-1,0-.58-.16-1.02-.48-1.33-.32-.31-.77-.55-1.37-.75-.47-.17-.87-.35-1.19-.54-.32-.19-.59-.46-.8-.8-.21-.34-.32-.77-.32-1.29.02-.52.16-.97.44-1.36.28-.39.65-.69,1.11-.89.46-.21.96-.31,1.5-.31.35.02.69.09,1.02.23.33.14.62.32.88.55.25.23.45.5.58.8l-.56.38c-.38-.81-.98-1.23-1.8-1.26-.41,0-.75.12-1.03.38-.28.25-.44.6-.46,1.04,0,.39.1.7.3.92.2.22.55.45,1.03.68.36.15.71.31,1.04.45.33.15.63.32.9.51.26.19.49.45.66.78.18.33.26.74.26,1.22,0,.4-.1.76-.27,1.1-.17.34-.4.62-.69.86-.29.24-.62.42-.98.54-.36.12-.74.19-1.13.19-.55,0-1.06-.12-1.55-.35-.48-.23-.86-.57-1.13-1.02"/>
        <path class="cls-2" d="M44.62,56.41h.84c-.03.57-.05,1.13-.07,1.67-.02.54-.02,1.07-.02,1.59,0,.95.11,1.6.34,1.94.23.34.63.51,1.21.51.54,0,.93-.18,1.15-.53.22-.35.33-.99.33-1.92,0-.52,0-1.05-.02-1.59-.02-.54-.04-1.1-.07-1.67h.82c-.04.43-.07.86-.09,1.3-.02.44-.03.91-.03,1.42v.9c0,.15,0,.28,0,.39,0,.12-.01.22-.02.31-.08.69-.28,1.18-.61,1.48-.32.3-.81.45-1.47.45s-1.19-.15-1.51-.44c-.33-.3-.53-.79-.61-1.48,0-.07-.02-.16-.02-.26,0-.1,0-.28,0-.54v-.65c0-.53-.01-1.03-.03-1.5-.02-.46-.05-.92-.1-1.38M42.17,56.41h.83c-.03.42-.05.85-.07,1.29-.02.44-.02.9-.02,1.37,0,.67,0,1.34.02,2.02.01.68.02,1.02.02,1.02,0,.67-.13,1.15-.39,1.44-.26.3-.67.44-1.25.44-.08,0-.17,0-.27-.01-.1,0-.21-.02-.33-.04l-.14-.6c.11.04.22.07.33.1.11.02.23.03.34.03.16,0,.3-.02.42-.06.13-.04.24-.1.33-.18.12-.1.2-.25.25-.45.05-.2.07-.56.07-1.1v-.37c0-.94-.01-1.82-.04-2.65-.02-.83-.06-1.57-.11-2.24M38.03,56.34c.08,0,.15,0,.19.01.04,0,.08,0,.12,0s.08,0,.13,0c.05,0,.1,0,.18-.01.3,1.07.63,2.13,1,3.16.36,1.03.76,2.04,1.18,3.03h-.85c-.11-.37-.21-.72-.31-1.04-.1-.32-.2-.63-.3-.92h-2.31c-.12.32-.23.64-.32.97-.09.33-.18.66-.25,1h-.83c.48-1.12.92-2.19,1.32-3.23.4-1.03.76-2.02,1.07-2.96M38.28,57.16c-.17.45-.33.91-.51,1.39-.18.49-.36,1-.54,1.54h1.97c-.14-.45-.28-.92-.43-1.4-.15-.48-.31-.99-.49-1.54M34.88,56.46l.1.64c-.19-.07-.4-.12-.62-.16-.22-.03-.45-.05-.7-.05-.72,0-1.29.23-1.71.7-.42.47-.63,1.11-.63,1.91s.19,1.44.57,1.9c.38.46.9.69,1.57.69.27,0,.54-.04.8-.13.26-.09.53-.22.79-.39l-.1.67c-.23.12-.48.21-.75.27-.27.06-.55.09-.84.09-.83,0-1.49-.26-1.97-.79-.48-.52-.73-1.24-.73-2.14,0-1.05.28-1.86.84-2.45.56-.58,1.34-.87,2.35-.87.18,0,.35,0,.52.02.17.02.33.04.49.08M27.42,56.34c.08,0,.15,0,.19.01.04,0,.08,0,.12,0s.08,0,.13,0c.05,0,.1,0,.18-.01.3,1.07.63,2.13,1,3.16.36,1.03.76,2.04,1.18,3.03h-.85c-.11-.37-.21-.72-.31-1.04-.1-.32-.2-.63-.3-.92h-2.31c-.12.32-.23.64-.32.97-.09.33-.18.66-.25,1h-.83c.48-1.12.92-2.19,1.32-3.23.4-1.03.76-2.02,1.07-2.96M27.67,57.16c-.17.45-.33.91-.51,1.39-.18.49-.36,1-.54,1.54h1.97c-.14-.45-.28-.92-.43-1.4-.15-.48-.31-.99-.49-1.54M20.72,62.53c.03-.47.06-.96.08-1.47.02-.51.02-1.04.02-1.59s0-1.08-.02-1.59c-.02-.51-.04-1-.08-1.48h.77c.6,0,1.03.01,1.29.04.26.03.49.08.67.15.29.11.51.29.68.53.16.24.24.53.24.86,0,.43-.13.77-.38,1.03-.25.26-.63.44-1.13.54.19.07.36.18.52.33.16.14.31.33.47.58.07.11.22.39.45.87.23.47.44.87.65,1.21h-.84c-.33-.8-.57-1.35-.74-1.67-.17-.32-.33-.55-.49-.7-.16-.15-.33-.27-.51-.34-.19-.07-.41-.11-.67-.11h-.14s-.06,0-.09.01v.14c0,.15.01.47.03.96.02.49.04,1.05.07,1.7h-.83ZM21.45,59.28c.12,0,.21.01.27.01.06,0,.11,0,.16,0,.63,0,1.09-.1,1.4-.31.31-.2.46-.52.46-.94s-.13-.7-.39-.88c-.26-.18-.7-.27-1.3-.27-.15,0-.27,0-.35,0-.08,0-.16,0-.23.01,0,.23,0,.61,0,1.14,0,.53,0,.94-.01,1.23M16.9,56.34c.08,0,.15,0,.19.01.04,0,.08,0,.12,0s.08,0,.13,0c.05,0,.1,0,.18-.01.3,1.07.63,2.13,1,3.16.36,1.03.76,2.04,1.18,3.03h-.85c-.11-.37-.21-.72-.31-1.04-.1-.32-.2-.63-.3-.92h-2.31c-.12.32-.23.64-.32.97-.09.33-.18.66-.25,1h-.83c.48-1.12.92-2.19,1.32-3.23.4-1.03.76-2.02,1.07-2.96M17.15,57.16c-.17.45-.33.91-.51,1.39-.18.49-.36,1-.54,1.54h1.97c-.14-.45-.28-.92-.43-1.4-.15-.48-.31-.99-.49-1.54"/>
      </g>
    </g>
  </g>
</svg>